<?xml version="1.0" encoding="utf-8"?>
<!-- Generator: Adobe Illustrator 19.0.0, SVG Export Plug-In . SVG Version: 6.00 Build 0)  -->
<svg version="1.1" id="Calque_1" xmlns="http://www.w3.org/2000/svg" xmlns:xlink="http://www.w3.org/1999/xlink" x="0px" y="0px"
	 viewBox="0 0 28.3 25" style="enable-background:new 0 0 28.3 25;" xml:space="preserve">
<style type="text/css">
	.st0{fill:#23B4B0;}
</style>
<g>
	<path class="st0" d="M0.1,10.5v10.1c0,0.6,0.2,1,0.6,1.4c0.4,0.4,0.9,0.6,1.4,0.6h4.5c0.6,0,1.8,0.3,3.5,0.9c2,0.7,3.7,1.1,5,1.1
		c1.5,0,2.7-0.4,3.6-1.2c0.9-0.8,1.4-2,1.4-3.4l0-0.1c0.6-0.8,1-1.7,1-2.8c0-0.2,0-0.5,0-0.7c0.3-0.6,0.5-1.2,0.6-1.9h2.7
		c1.1,0,2-0.4,2.8-1.2c0.8-0.8,1.2-1.7,1.2-2.8c0-1.1-0.4-2-1.2-2.8c-0.8-0.8-1.7-1.2-2.8-1.2h-5.9c0.2-0.6,0.3-1.3,0.3-2
		c0-1.3-0.4-2.3-1.3-3c-0.9-0.7-1.9-1.1-3.3-1.1c-0.4,0-0.8,0.1-1.1,0.3c-0.3,0.2-0.6,0.4-0.9,0.8c-0.2,0.3-0.5,0.7-0.6,1
		c-0.2,0.3-0.4,0.7-0.6,1.1c-0.2,0.4-0.4,0.8-0.5,1c-0.4,0.6-0.9,1.3-1.6,2c0,0-0.1,0.1-0.2,0.3C8.6,7.1,8.5,7.2,8.4,7.2
		C8.4,7.3,8.3,7.4,8.1,7.6C8,7.7,7.8,7.8,7.7,7.9C7.6,8,7.5,8.1,7.4,8.2C7.3,8.3,7.1,8.4,7,8.4c-0.1,0-0.2,0.1-0.3,0.1H2.1
		c-0.6,0-1,0.2-1.4,0.6C0.3,9.5,0.1,10,0.1,10.5z M6.2,20.6L6.2,20.6l0-10.1h0.5c0.4,0,0.7-0.1,1.1-0.2c0.3-0.1,0.7-0.3,1-0.6
		C9,9.5,9.3,9.2,9.5,9s0.5-0.5,0.8-0.9c0,0,0-0.1,0.1-0.1c0,0,0,0,0.1-0.1c0,0,0.1-0.1,0.1-0.1c0.8-0.9,1.3-1.6,1.8-2.3
		c0.1-0.2,0.3-0.6,0.6-1.1c0,0,0.1-0.1,0.2-0.4c0.1-0.2,0.2-0.4,0.3-0.6c0.1-0.2,0.2-0.4,0.3-0.6c0.1-0.2,0.2-0.4,0.3-0.5
		c0.1-0.1,0.2-0.2,0.3-0.2c0.7,0,1.4,0.2,1.8,0.5c0.5,0.3,0.7,0.8,0.7,1.5c0,0.5-0.1,0.9-0.2,1.3c-0.2,0.4-0.3,0.8-0.5,1.1
		c-0.2,0.3-0.4,0.6-0.5,0.9c-0.2,0.3-0.2,0.6-0.2,0.8h9.1c0.5,0,1,0.2,1.4,0.6c0.4,0.4,0.6,0.9,0.6,1.4c0,0.5-0.2,1-0.6,1.4
		c-0.4,0.4-0.9,0.6-1.4,0.6h-5.2c0.2,0.2,0.3,0.4,0.4,0.7c0.1,0.3,0.2,0.6,0.2,0.9c0,0.7-0.3,1.3-0.8,1.9c0.2,0.3,0.3,0.7,0.3,1.1
		c0,0.4-0.1,0.8-0.3,1.2c-0.2,0.4-0.4,0.7-0.7,0.8c0,0.3,0.1,0.5,0.1,0.9c0,0.9-0.3,1.6-0.8,2c-0.5,0.4-1.2,0.6-2.1,0.6
		c-0.9,0-1.8-0.2-2.9-0.5c-1-0.3-2.1-0.7-3.1-1c-1-0.3-1.9-0.5-2.6-0.5L6.2,20.6L6.2,20.6z M2.1,19.6c0-0.3,0.1-0.5,0.3-0.7
		c0.2-0.2,0.4-0.3,0.7-0.3c0.3,0,0.5,0.1,0.7,0.3c0.2,0.2,0.3,0.4,0.3,0.7c0,0.3-0.1,0.5-0.3,0.7c-0.2,0.2-0.4,0.3-0.7,0.3
		c-0.3,0-0.5-0.1-0.7-0.3C2.2,20.1,2.1,19.9,2.1,19.6z"/>
</g>
</svg>
