<?xml version="1.0" encoding="utf-8"?>
<!-- Generator: Adobe Illustrator 19.0.0, SVG Export Plug-In . SVG Version: 6.00 Build 0)  -->
<svg version="1.1" id="Calque_1" xmlns="http://www.w3.org/2000/svg" xmlns:xlink="http://www.w3.org/1999/xlink" x="0px" y="0px"
	 viewBox="130 -80.6 285 184.6" style="enable-background:new 130 -80.6 285 184.6;" xml:space="preserve">
<style type="text/css">
	.st0{fill:#FFFFFF;}
	.st1{fill:#08B7B2;}
</style>
<g>
	<path class="st0" d="M288.2,12.9c-1.3-0.7-2.1,0.3-2.7,1.3c-1.3,2.3-2.5,4.6-3.8,6.8c-0.4,0.8-0.9,2.1-1.9,1.8
		c-1.2-0.4-0.7-1.7-0.6-2.7c0.5-3.9,1.1-7.8,1.5-11.7c0.1-1.1,0.5-2.7-1.2-3s-2.1,1.2-2.4,2.5c-0.2,0.8-0.3,1.6-0.4,2.5
		c-0.4,2.7-0.6,5.4-1.6,7.9c0,0.4,0,0.7-0.1,1.1c-0.2,0.7-0.3,1.6-1.1,1.7c-1.1,0.1-1-1.1-1.3-1.8c-0.2-0.5-0.1-1.1-0.2-1.6
		c-0.4-3.1-0.8-6.1-1.1-9.2c-0.1-0.6-0.3-1.6-0.4-2.2c0-0.1-0.1-0.2-0.1-0.4c-0.3-1.4-0.4-3.1-2.3-2.9c-2.2,0.2-1.8,2.1-1.8,3.5
		c0.2,3.4,0.6,6.9,0.9,10.3c0.1,1.5,0.6,3.1-0.5,4.9c-2.1-3-3-6.4-4.8-9.3c-1-1.7-1.5-5.1-4.1-4c-2.6,1.2-0.6,4,0.1,6
		c1.1,3,2.7,5.7,3.8,8.7c0.9,2.6,1.7,5.4-0.1,8c-1.1-0.4-1.3-1.4-1.9-2.1c-1.3-1.5-2.5-3.1-4.6-3.5c-1-0.2-2.1-0.2-2.8,0.7
		c-0.7,0.9,0.3,1.5,0.6,2.2c0.3,0.6,3.9,5.1,5,7c1.8,3.1,3.8,6.1,6.5,8.4c1.5,1.3,1.9,2.7,1.8,4.7c-0.2,2.6-0.4,11.6-0.6,13.4
		c0.8,0.3,2.5-2.6,3.4-3c1.8-0.7,3.2-0.4,4.9,0.6c2.4,1.4,6.6,6.1,7.7,1.6c-0.4-7-0.5-19.2,0.5-24.1c1.4-7,1.6-14.1,5.6-20.4
		c0.2-0.4,0.4-0.8,0.5-1.2C288.7,14.7,289.4,13.5,288.2,12.9z"/>
	<path class="st0" d="M224-5.2c-5.4,1.7-5.4,1.7-1.6,5.6c4.2,4.1,9.3,6.1,14.9,7.3c0.7,0,1.5,0.1,2.2,0.1c3.2,0,6.4-0.5,9.5-1.3
		c0.4-0.1,0.8-0.3,1.2-0.4c0.3-0.5,0.7-0.5,1.2-0.5c1.7-1.2,0.3-2-0.3-2.9C244.8-4.9,233.6-8.2,224-5.2z"/>
	<path class="st0" d="M226.7,11.9c-9.4-4.5-18.4-3.4-27,2.1c-3,2.8-3,2.8,0.8,5c0.9,0.5,1.7,1,2.7,1.3c8.6,2.8,16.7,1.8,24.4-3.1
		C230.9,14.1,230.9,14,226.7,11.9z"/>
	<path class="st0" d="M272.5-47.6c0.7,0,1.3-0.7,2.3-2.1c2.8-4.3,4.3-9,4.2-13.9c0-0.1,0-0.1,0-0.2c0-0.5,0-1,0-1.5
		c-0.2-4.8-1.5-9.1-4-13.1c-0.9-1.4-1.7-2.1-2.4-2.1c-0.8-0.1-1.5,0.6-2.4,2.1c-2.5,4-3.8,8.3-4,13.1c0,0.5,0,1,0,1.5
		c0,0.1,0,0.1,0,0.2c-0.1,4.9,1.4,9.6,4.2,13.9C271.2-48.3,271.8-47.6,272.5-47.6z"/>
	<path class="st0" d="M272.5-38.8c-0.5-0.1-1,0.4-1.6,1.1c-3.4,4.6-4.9,9.8-4.9,14c0,6.9,1.5,11.9,4.7,16.4c0.6,0.9,1.2,1.3,1.7,1.3
		c0.6,0.1,1.1-0.4,1.7-1.3c3.2-4.5,4.7-9.5,4.7-16.4c-0.1-4.2-1.5-9.4-4.9-14C273.5-38.5,273-38.9,272.5-38.8z"/>
	<path class="st0" d="M251.8,18c-3.9-0.6-7.6,0.1-12,2.3c-2.6,1.4-5.5,4-7.3,7.7c-0.5,1.1-0.6,1.6,0.8,1.9
		c7.3,1.5,16.4-3.1,19.6-9.9C253.5,18.6,253.1,18.2,251.8,18z"/>
	<path class="st0" d="M216.4-13.5c1.4-0.6,1.4-1.2,0.5-2.3c-2.5-3-5.7-5-10.5-6.3c-2.9-0.7-6.8-0.7-10.6,0.9c-1.1,0.4-1.5,0.8-0.6,2
		C199.7-13.1,209.5-10.5,216.4-13.5z"/>
	<path class="st0" d="M258.6-35.4c1.2,1,1.7,0.7,2.3-0.6c1.4-3.7,1.6-7.4,0.4-12.2c-0.8-2.9-2.7-6.3-5.9-8.8c-0.9-0.7-1.4-0.9-2,0.4
		C250.2-49.9,252.6-40,258.6-35.4z"/>
	<path class="st0" d="M261.1-1c1.5,0.4,1.9-0.1,1.8-1.5c-0.2-3.9-1.6-7.4-4.7-11.3c-1.9-2.3-5.1-4.6-9-5.6c-1.1-0.3-1.7-0.2-1.7,1.2
		C247.4-10.7,253.8-2.7,261.1-1z"/>
	<path class="st0" d="M238.4-17.6c3.8,0.1,3.9-0.1,2.7-3.6c-3.6-9.7-13.5-16.6-23.8-16.5c-2.1,0-2.6,0.5-1.9,2.6
		C218.5-25.4,228.2-17.9,238.4-17.6z"/>
	<path class="st0" d="M243.2-35.8c1.5,0.2,2-0.1,1.9-1.6c-0.2-3.1-0.7-6-1.9-8.9c-3.9-8.5-10-14.3-19.2-16.6
		c-1.2-0.3-2.6-0.9-2.6,1.4C221.2-50.2,232.1-37.5,243.2-35.8z"/>
	<path class="st0" d="M294,2.7c-0.7,0.8-2.1,1.7-0.3,2.9c0.5,0,0.9,0.1,1.2,0.5c0.4,0.1,0.8,0.3,1.2,0.4c3.1,0.8,6.3,1.3,9.5,1.3
		c0.7,0,1.5-0.1,2.2-0.1c5.6-1.2,10.7-3.2,14.9-7.3c3.8-3.9,3.8-3.9-1.6-5.6C311.4-8.2,300.2-4.9,294,2.7z"/>
	<path class="st0" d="M345.3,14.1c-8.6-5.5-17.6-6.7-27-2.1c-4.2,2-4.2,2.2-0.9,5.3c7.6,4.9,15.7,5.9,24.4,3.1
		c1-0.3,1.9-0.8,2.7-1.3C348.3,16.9,348.3,16.8,345.3,14.1z"/>
	<path class="st0" d="M305.2,20.3c-4.4-2.2-8.1-2.9-12-2.3c-1.4,0.2-1.8,0.6-1.1,2.1c3.2,6.8,12.3,11.4,19.6,9.9
		c1.4-0.3,1.4-0.8,0.8-1.9C310.7,24.4,307.9,21.7,305.2,20.3z"/>
	<path class="st0" d="M349.2-21.1c-3.8-1.5-7.7-1.6-10.6-0.9c-4.8,1.3-8,3.2-10.5,6.3c-0.9,1.1-0.9,1.7,0.5,2.3
		c6.9,3,16.8,0.3,21.2-5.7C350.6-20.3,350.3-20.7,349.2-21.1z"/>
	<path class="st0" d="M286.4-35.4c5.9-4.6,8.3-14.5,5.2-21.3c-0.6-1.3-1.1-1.2-2-0.4c-3.2,2.6-5.1,5.9-5.9,8.8
		c-1.2,4.8-1,8.6,0.4,12.2C284.7-34.7,285.2-34.4,286.4-35.4z"/>
	<path class="st0" d="M295.9-19.4c-4,1-7.1,3.3-9,5.6c-3.1,3.9-4.5,7.4-4.7,11.3c-0.1,1.4,0.3,1.9,1.8,1.5
		c7.3-1.7,13.6-9.7,13.6-17.2C297.6-19.6,297.1-19.6,295.9-19.4z"/>
	<path class="st0" d="M303.9-21.2c-1.3,3.5-1.1,3.7,2.7,3.6c10.2-0.3,19.9-7.7,23-17.6c0.7-2.1,0.2-2.6-1.9-2.6
		C317.4-37.8,307.5-30.9,303.9-21.2z"/>
	<path class="st0" d="M301.8-35.8c11.1-1.7,21.9-14.4,21.8-25.6c0-2.3-1.3-1.7-2.6-1.4c-9.2,2.3-15.3,8.1-19.2,16.6
		c-1.2,2.8-1.8,5.8-1.9,8.9C299.8-35.9,300.3-35.6,301.8-35.8z"/>
</g>
<path class="st1" d="M411.2,71.4C411.4,71.3,411.2,71.2,411.2,71.4L411.2,71.4z"/>
<g>
	<path class="st0" d="M349.4,75.6c-4.3-4-10.3-4.2-15.7-2.7c-0.1,0-0.2,0.1-0.3,0.1c-1.8,0.5-3.2,2.1-3.3,4
		c-0.1,2.6,1.9,4.5,4.4,4.6c2.4-0.1,4.4-1.9,4.4-4.4c0-1.2-0.5-2.3-1.3-3.1c4,0.9,8,4.1,7.8,8.2c0,0.9,0,1.3,0,1.3
		c0-0.1-0.2-0.6-1-0.2c-1,0.4-2.8,0.2-3.9,0.3c-1.6,0.2-3.3,0.5-4.8,1c-5.5,1.9-9.8,6.9-7.8,13c2.1,6.3,10.1,7.6,15.4,4.7
		c0.2-0.1,2.1-1.7,2.6-2.4c0.3,0.7,1.6,2.4,1.2,2.1c1.2,1.3,3.1,1.6,4.8,1.3c0.3,0,0.5-0.3,0.5-0.6c0-4.6-0.1-9.1-0.1-13.7
		C352.5,84.4,352.6,79.6,349.4,75.6z M345.7,92.8c-0.2,3.2-3,5.5-6.1,5.8c-3.4,0.3-6.1-2.3-4.9-5.8c1.4-4,7.3-4.1,11-4.1
		C345.7,90,345.7,91.4,345.7,92.8z"/>
	<path class="st0" d="M371.7,72.3c-3.9,0.2-7.1,1.6-9.5,4.5c-0.1-1.1-0.2-2.2-0.3-3.2c0-0.3-0.3-0.6-0.6-0.6c-1.6,0-3.3,0-4.9,0
		c-0.3,0-0.6,0.3-0.6,0.6c0.6,9.7,0.2,19.4,0.2,29.1c0,0.3,0.3,0.6,0.6,0.6c1.9,0,3.7,0,5.6,0c0.3,0,0.6-0.3,0.6-0.6
		c0-5.7-0.7-11.7,0-17.4c0.6-4.7,5.4-9.2,10.2-6.4c2.5,1.5,3,4.7,3.1,7.3c0.1,1.4,0,2.8,0,4.1c0,2.6,0,5.2,0,7.8
		c0,0.3,0.2,0.5,0.5,0.6c-0.5-0.2,0.5,2.7,0.8,3c0.6,0.7,1.2,1.2,2.1,1.5c1,0.4,2.1,0.4,3.1,0.2c0.3,0,0.5-0.3,0.5-0.6
		C382.9,92.6,386.5,73.2,371.7,72.3z"/>
	<path class="st0" d="M414.8,93.1C414.8,93.4,415,93.3,414.8,93.1L414.8,93.1z"/>
	<path class="st0" d="M414.6,97.9c0.2-0.1,0.3-0.3,0.3-0.5c0-0.7,0-1.3,0-2c0-0.6,0-1.2,0-1.8c0-0.3-0.3-0.6-0.6-0.6
		c0.3,0,0.5,0.1,0.6,0.2c0-0.1,0-0.3,0.1-0.6c0.2-0.9,0-2,0-2.9c0-3.1,0-6.2,0-9.4c0-3,0-6,0-9c0-0.9,0.2-2.1,0-3
		c-0.1-0.4-0.1-0.7-0.1-0.8c-0.1,0.1-0.3,0.1-0.6,0.1c0.3,0,0.6-0.3,0.6-0.6c0-4.4-0.1-11.2-6.4-10c-0.3,0.1-0.5,0.3-0.5,0.6
		c0,6.1,0,12.2,0,18.3c-3.5-3.4-8.8-4.4-13.5-2.6c-6,2.3-9.1,8.5-9.3,14.6c-0.2,6.3,2.6,13,8.8,15.4c5.2,2,10.8,0.5,14.3-3.6
		c0.2,0.5,0.3,1.1,0.4,1.6c0,0.6,0.6,0.8,1.1,0.4c-1.5,1.3,3.9,2.1,4.6,2c0.3,0,0.5-0.3,0.5-0.6c0-0.9,0-1.9,0-2.8
		C414.9,99.2,415.2,97.7,414.6,97.9z M408,90.2c-0.3,6.3-7.9,11-13,6c-3.8-3.7-3.9-11.6-0.4-15.5c4.9-5.4,13.1-2.1,13.4,4.9
		C408.1,87.1,408,88.7,408,90.2z"/>
	<path class="st0" d="M324.4,61.5c-1.9,0-3.7,0-5.6,0c-0.3,0-0.6,0.3-0.6,0.6c0,3.2,0,6.4,0,9.6c-2.8,6.9-10.7,9-16.7,12.3
		c-1.5,0.8-2.9,2-4.3,2.7c0-0.4,0-0.8,0-1.3c0-0.8,0-1.6,0-2.4c0-7,0-13.9,0-20.9c0-0.3-0.3-0.6-0.6-0.6c-1.9,0-3.7,0-5.6,0
		c-0.3,0-0.6,0.3-0.6,0.6c0,13.5,0,27,0,40.6c0,0.3,0.3,0.6,0.6,0.6c1.9,0,3.7,0,5.6,0c0.3,0,0.6-0.3,0.6-0.6c0-4.7-0.2-7.3,4-10.2
		c5.4-3.8,11.9-5.5,17-9.7c0,6.6,0,13.3,0,19.9c0,0.3,0.3,0.6,0.6,0.6c1.9,0,3.7,0,5.6,0c0.3,0,0.6-0.3,0.6-0.6c0-13.5,0-27,0-40.6
		C325,61.8,324.7,61.5,324.4,61.5z"/>
	<path class="st0" d="M167.9,81.4L167.9,81.4c-1.4-0.6-7.6-2.3-12.2,0.7c3.9-5.5,10.8-3,11.3-3.2l0.2-0.1l-0.1-0.2
		c-1.1-1.4-7.1-6.8-14.9,0.6c0,0-4.5,3.9-9,2.5h-0.4L143,82c2.8,3.7,6,6.3,10.1,6.7c2.1,0.2,4,0.1,5.6-0.2v6.9
		c-0.9,0.4-2.6,0.6-4.9,0.6c-4.1,0-7.4-1.2-10-3.7c-2.5-2.5-3.8-5.8-3.8-9.9c0-4.2,1.3-7.4,3.9-9.8c2.6-2.4,6-3.6,10.4-3.6
		c4,0,7.4,0.6,10.2,1.8l2-7.5c-3-1.4-7.1-2.1-12.1-2.1c-7.3,0-13.2,2-17.7,5.9c-4.5,4-6.7,9.3-6.7,15.9c0,6.1,2,11.1,5.9,14.9
		c3.9,3.8,9.8,5.8,17.6,5.8c4.6,0,9.4-0.8,14.5-2.4V82c0.1-0.2,0.2-0.3,0.3-0.4C168.2,81.5,168.1,81.4,167.9,81.4L167.9,81.4z"/>
	<path class="st0" d="M185,74.1c-1.5,1.1-2.7,2.7-3.4,4.8h-0.2l-0.3-5.7h-8.2c0.2,2.2,0.2,5.5,0.2,10v20.1h9.5V88.1
		c0-2.5,0.7-4.3,2.1-5.3c1.4-1,2.9-1.5,4.7-1.5c0.9,0,1.8,0.1,2.6,0.3v-8.9c-0.4-0.1-1.1-0.2-2-0.2C188.2,72.4,186.6,73,185,74.1z"
		/>
	<path class="st0" d="M208.4,72.4c-4.8,0-8.5,1.6-11.4,4.8c-2.8,3.2-4.2,6.9-4.2,11.3c0,4.8,1.5,8.5,4.4,11.3
		c2.9,2.7,7,4.1,12.1,4.1c4.3,0,8.1-0.7,11.2-2l-1.2-6.3c-2.6,0.9-5.5,1.3-8.6,1.3c-2.4,0-4.5-0.5-6.1-1.5c-1.6-1-2.5-2.4-2.7-4.2
		h20c0.2-1,0.4-2.2,0.4-3.6c0-4.4-1.2-8.1-3.6-10.9C216.2,73.9,212.8,72.4,208.4,72.4z M201.8,84.7c0.3-1.8,0.9-3.2,2-4.3
		s2.4-1.6,4.1-1.6c2,0,3.4,0.6,4.2,1.9c0.8,1.3,1.2,2.6,1.2,4L201.8,84.7L201.8,84.7z"/>
	<path class="st0" d="M239.6,72.4c-4.8,0-8.5,1.6-11.4,4.8c-2.8,3.2-4.2,6.9-4.2,11.3c0,4.8,1.5,8.5,4.4,11.3
		c2.9,2.7,7,4.1,12.1,4.1c4.3,0,8.1-0.7,11.2-2l-1.2-6.3c-2.6,0.9-5.5,1.3-8.6,1.3c-2.4,0-4.5-0.5-6.1-1.5s-2.5-2.4-2.7-4.2h20
		c0.2-1,0.4-2.2,0.4-3.6c0-4.4-1.2-8.1-3.6-10.9C247.4,73.9,244,72.4,239.6,72.4z M233,84.7c0.3-1.8,0.9-3.2,2-4.3s2.4-1.6,4.1-1.6
		c2,0,3.4,0.6,4.2,1.9c0.8,1.3,1.2,2.6,1.2,4L233,84.7L233,84.7z"/>
	<path class="st0" d="M282.4,75.9c-2-2.3-4.7-3.4-8.1-3.4c-4.1,0-7.3,1.6-9.5,4.9h-0.2l-0.4-4.2H256c0.2,3.5,0.2,6.7,0.2,9.7v20.4
		h9.5V86.1c0-1.9,0.5-3.3,1.6-4.4c1.1-1,2.3-1.5,3.6-1.5c3.3,0,5,2.2,5,6.7v16.4h9.5V85.6C285.4,81.4,284.4,78.2,282.4,75.9z"/>
</g>
</svg>
