<?xml version="1.0" encoding="utf-8"?>
<!-- Generator: Adobe Illustrator 19.0.0, SVG Export Plug-In . SVG Version: 6.00 Build 0)  -->
<svg version="1.1" id="Calque_1" xmlns="http://www.w3.org/2000/svg" xmlns:xlink="http://www.w3.org/1999/xlink" x="0px" y="0px"
	 viewBox="0 0 285 184.6" style="enable-background:new 0 0 285 184.6;" xml:space="preserve">
<style type="text/css">
	.st0{fill:#96BD11;}
	.st1{fill:#08B7B2;}
</style>
<g>
	<path class="st0" d="M158.2,93.5c-1.3-0.7-2.1,0.3-2.7,1.3c-1.3,2.3-2.5,4.6-3.8,6.8c-0.4,0.8-0.9,2.1-1.9,1.8
		c-1.2-0.4-0.7-1.7-0.6-2.7c0.5-3.9,1.1-7.8,1.5-11.7c0.1-1.1,0.5-2.7-1.2-3c-1.7-0.3-2.1,1.2-2.4,2.5c-0.2,0.8-0.3,1.6-0.4,2.5
		c-0.4,2.7-0.6,5.4-1.6,7.9c0,0.4,0,0.7-0.1,1.1c-0.2,0.7-0.3,1.6-1.1,1.7c-1.1,0.1-1-1.1-1.3-1.8c-0.2-0.5-0.1-1.1-0.2-1.6
		c-0.4-3.1-0.8-6.1-1.1-9.2c-0.1-0.6-0.3-1.6-0.4-2.2c0-0.1-0.1-0.2-0.1-0.4c-0.3-1.4-0.4-3.1-2.3-2.9c-2.2,0.2-1.8,2.1-1.8,3.5
		c0.2,3.4,0.6,6.9,0.9,10.3c0.1,1.5,0.6,3.1-0.5,4.9c-2.1-3-3-6.4-4.8-9.3c-1-1.7-1.5-5.1-4.1-4c-2.6,1.2-0.6,4,0.1,6
		c1.1,3,2.7,5.7,3.8,8.7c0.9,2.6,1.7,5.4-0.1,8c-1.1-0.4-1.3-1.4-1.9-2.1c-1.3-1.5-2.5-3.1-4.6-3.5c-1-0.2-2.1-0.2-2.8,0.7
		c-0.7,0.9,0.3,1.5,0.6,2.2c0.3,0.6,3.9,5.1,5,7c1.8,3.1,3.8,6.1,6.5,8.4c1.5,1.3,1.9,2.7,1.8,4.7c-0.2,2.6-0.4,11.6-0.6,13.4
		c0.8,0.3,2.5-2.6,3.4-3c1.8-0.7,3.2-0.4,4.9,0.6c2.4,1.4,6.6,6.1,7.7,1.6c-0.4-7-0.5-19.2,0.5-24.1c1.4-7,1.6-14.1,5.6-20.4
		c0.2-0.4,0.4-0.8,0.5-1.2C158.7,95.3,159.4,94.1,158.2,93.5z"/>
	<path class="st1" d="M94,75.4c-5.4,1.7-5.4,1.7-1.6,5.6c4.2,4.1,9.3,6.1,14.9,7.3c0.7,0,1.5,0.1,2.2,0.1c3.2,0,6.4-0.5,9.5-1.3
		c0.4-0.1,0.8-0.3,1.2-0.4c0.3-0.5,0.7-0.5,1.2-0.5c1.7-1.2,0.3-2-0.3-2.9C114.8,75.7,103.6,72.4,94,75.4z"/>
	<path class="st1" d="M96.7,92.5c-9.4-4.5-18.4-3.4-27,2.1c-3,2.8-3,2.8,0.8,5c0.9,0.5,1.7,1,2.7,1.3c8.6,2.8,16.7,1.8,24.4-3.1
		C100.9,94.7,100.9,94.6,96.7,92.5z"/>
	<path class="st1" d="M142.5,33c0.7,0,1.3-0.7,2.3-2.1c2.8-4.3,4.3-9,4.2-13.9c0-0.1,0-0.1,0-0.2c0-0.5,0-1,0-1.5
		c-0.2-4.8-1.5-9.1-4-13.1c-0.9-1.4-1.7-2.1-2.4-2.1c-0.8-0.1-1.5,0.6-2.4,2.1c-2.5,4-3.8,8.3-4,13.1c0,0.5,0,1,0,1.5
		c0,0.1,0,0.1,0,0.2c-0.1,4.9,1.4,9.6,4.2,13.9C141.2,32.3,141.8,33,142.5,33z"/>
	<path class="st1" d="M142.5,41.8c-0.5-0.1-1,0.4-1.6,1.1c-3.4,4.6-4.9,9.8-4.9,14c0,6.9,1.5,11.9,4.7,16.4c0.6,0.9,1.2,1.3,1.7,1.3
		c0.6,0.1,1.1-0.4,1.7-1.3c3.2-4.5,4.7-9.5,4.7-16.4c-0.1-4.2-1.5-9.4-4.9-14C143.5,42.1,143,41.7,142.5,41.8z"/>
	<path class="st1" d="M121.8,98.6c-3.9-0.6-7.6,0.1-12,2.3c-2.6,1.4-5.5,4-7.3,7.7c-0.5,1.1-0.6,1.6,0.8,1.9
		c7.3,1.5,16.4-3.1,19.6-9.9C123.5,99.2,123.1,98.8,121.8,98.6z"/>
	<path class="st1" d="M86.4,67.1c1.4-0.6,1.4-1.2,0.5-2.3c-2.5-3-5.7-5-10.5-6.3c-2.9-0.7-6.8-0.7-10.6,0.9c-1.1,0.4-1.5,0.8-0.6,2
		C69.7,67.5,79.5,70.1,86.4,67.1z"/>
	<path class="st1" d="M128.6,45.2c1.2,1,1.7,0.7,2.3-0.6c1.4-3.7,1.6-7.4,0.4-12.2c-0.8-2.9-2.7-6.3-5.9-8.8c-0.9-0.7-1.4-0.9-2,0.4
		C120.2,30.7,122.6,40.6,128.6,45.2z"/>
	<path class="st1" d="M131.1,79.6c1.5,0.4,1.9-0.1,1.8-1.5c-0.2-3.9-1.6-7.4-4.7-11.3c-1.9-2.3-5.1-4.6-9-5.6
		c-1.1-0.3-1.7-0.2-1.7,1.2C117.4,69.9,123.8,77.9,131.1,79.6z"/>
	<path class="st1" d="M108.4,63c3.8,0.1,3.9-0.1,2.7-3.6c-3.6-9.7-13.5-16.6-23.8-16.5c-2.1,0-2.6,0.5-1.9,2.6
		C88.5,55.2,98.2,62.7,108.4,63z"/>
	<path class="st1" d="M113.2,44.8c1.5,0.2,2-0.1,1.9-1.6c-0.2-3.1-0.7-6-1.9-8.9c-3.9-8.5-10-14.3-19.2-16.6
		c-1.2-0.3-2.6-0.9-2.6,1.4C91.2,30.4,102.1,43.1,113.2,44.8z"/>
	<path class="st1" d="M164,83.3c-0.7,0.8-2.1,1.7-0.3,2.9c0.5,0,0.9,0.1,1.2,0.5c0.4,0.1,0.8,0.3,1.2,0.4c3.1,0.8,6.3,1.3,9.5,1.3
		c0.7,0,1.5-0.1,2.2-0.1c5.6-1.2,10.7-3.2,14.9-7.3c3.8-3.9,3.8-3.9-1.6-5.6C181.4,72.4,170.2,75.7,164,83.3z"/>
	<path class="st1" d="M215.3,94.7c-8.6-5.5-17.6-6.7-27-2.1c-4.2,2-4.2,2.2-0.9,5.3c7.6,4.9,15.7,5.9,24.4,3.1
		c1-0.3,1.9-0.8,2.7-1.3C218.3,97.5,218.3,97.4,215.3,94.7z"/>
	<path class="st1" d="M175.2,100.9c-4.4-2.2-8.1-2.9-12-2.3c-1.4,0.2-1.8,0.6-1.1,2.1c3.2,6.8,12.3,11.4,19.6,9.9
		c1.4-0.3,1.4-0.8,0.8-1.9C180.7,105,177.9,102.3,175.2,100.9z"/>
	<path class="st1" d="M219.2,59.5c-3.8-1.5-7.7-1.6-10.6-0.9c-4.8,1.3-8,3.2-10.5,6.3c-0.9,1.1-0.9,1.7,0.5,2.3
		c6.9,3,16.8,0.3,21.2-5.7C220.6,60.3,220.3,59.9,219.2,59.5z"/>
	<path class="st1" d="M156.4,45.2c5.9-4.6,8.3-14.5,5.2-21.3c-0.6-1.3-1.1-1.2-2-0.4c-3.2,2.6-5.1,5.9-5.9,8.8
		c-1.2,4.8-1,8.6,0.4,12.2C154.7,45.9,155.2,46.2,156.4,45.2z"/>
	<path class="st1" d="M165.9,61.2c-4,1-7.1,3.3-9,5.6c-3.1,3.9-4.5,7.4-4.7,11.3c-0.1,1.4,0.3,1.9,1.8,1.5
		c7.3-1.7,13.6-9.7,13.6-17.2C167.6,61,167.1,61,165.9,61.2z"/>
	<path class="st1" d="M173.9,59.4c-1.3,3.5-1.1,3.7,2.7,3.6c10.2-0.3,19.9-7.7,23-17.6c0.7-2.1,0.2-2.6-1.9-2.6
		C187.4,42.8,177.5,49.7,173.9,59.4z"/>
	<path class="st1" d="M171.8,44.8c11.1-1.7,21.9-14.4,21.8-25.6c0-2.3-1.3-1.7-2.6-1.4c-9.2,2.3-15.3,8.1-19.2,16.6
		c-1.2,2.8-1.8,5.8-1.9,8.9C169.8,44.7,170.3,45,171.8,44.8z"/>
</g>
<path class="st1" d="M281.2,152C281.4,151.9,281.2,151.8,281.2,152L281.2,152z"/>
<g>
	<path class="st1" d="M219.4,156.2c-4.3-4-10.3-4.2-15.7-2.7c-0.1,0-0.2,0.1-0.3,0.1c-1.8,0.5-3.2,2.1-3.3,4
		c-0.1,2.6,1.9,4.5,4.4,4.6c2.4-0.1,4.4-1.9,4.4-4.4c0-1.2-0.5-2.3-1.3-3.1c4,0.9,8,4.1,7.8,8.2c0,0.9,0,1.3,0,1.3
		c0-0.1-0.2-0.6-1-0.2c-1,0.4-2.8,0.2-3.9,0.3c-1.6,0.2-3.3,0.5-4.8,1c-5.5,1.9-9.8,6.9-7.8,13c2.1,6.3,10.1,7.6,15.4,4.7
		c0.2-0.1,2.1-1.7,2.6-2.4c0.3,0.7,1.6,2.4,1.2,2.1c1.2,1.3,3.1,1.6,4.8,1.3c0.3,0,0.5-0.3,0.5-0.6c0-4.6-0.1-9.1-0.1-13.7
		C222.5,165,222.6,160.2,219.4,156.2z M215.7,173.4c-0.2,3.2-3,5.5-6.1,5.8c-3.4,0.3-6.1-2.3-4.9-5.8c1.4-4,7.3-4.1,11-4.1
		C215.7,170.6,215.7,172,215.7,173.4z"/>
	<path class="st1" d="M241.7,152.9c-3.9,0.2-7.1,1.6-9.5,4.5c-0.1-1.1-0.2-2.2-0.3-3.2c0-0.3-0.3-0.6-0.6-0.6c-1.6,0-3.3,0-4.9,0
		c-0.3,0-0.6,0.3-0.6,0.6c0.6,9.7,0.2,19.4,0.2,29.1c0,0.3,0.3,0.6,0.6,0.6c1.9,0,3.7,0,5.6,0c0.3,0,0.6-0.3,0.6-0.6
		c0-5.7-0.7-11.7,0-17.4c0.6-4.7,5.4-9.2,10.2-6.4c2.5,1.5,3,4.7,3.1,7.3c0.1,1.4,0,2.8,0,4.1c0,2.6,0,5.2,0,7.8
		c0,0.3,0.2,0.5,0.5,0.6c-0.5-0.2,0.5,2.7,0.8,3c0.6,0.7,1.2,1.2,2.1,1.5c1,0.4,2.1,0.4,3.1,0.2c0.3,0,0.5-0.3,0.5-0.6
		C252.9,173.2,256.5,153.8,241.7,152.9z"/>
	<path class="st1" d="M284.8,173.7C284.8,174,285,173.9,284.8,173.7L284.8,173.7z"/>
	<path class="st1" d="M284.6,178.5c0.2-0.1,0.3-0.3,0.3-0.5c0-0.7,0-1.3,0-2c0-0.6,0-1.2,0-1.8c0-0.3-0.3-0.6-0.6-0.6
		c0.3,0,0.5,0.1,0.6,0.2c0-0.1,0-0.3,0.1-0.6c0.2-0.9,0-2,0-2.9c0-3.1,0-6.2,0-9.4c0-3,0-6,0-9c0-0.9,0.2-2.1,0-3
		c-0.1-0.4-0.1-0.7-0.1-0.8c-0.1,0.1-0.3,0.1-0.6,0.1c0.3,0,0.6-0.3,0.6-0.6c0-4.4-0.1-11.2-6.4-10c-0.3,0.1-0.5,0.3-0.5,0.6
		c0,6.1,0,12.2,0,18.3c-3.5-3.4-8.8-4.4-13.5-2.6c-6,2.3-9.1,8.5-9.3,14.6c-0.2,6.3,2.6,13,8.8,15.4c5.2,2,10.8,0.5,14.3-3.6
		c0.2,0.5,0.3,1.1,0.4,1.6c0,0.6,0.6,0.8,1.1,0.4c-1.5,1.3,3.9,2.1,4.6,2c0.3,0,0.5-0.3,0.5-0.6c0-0.9,0-1.9,0-2.8
		C284.9,179.8,285.2,178.3,284.6,178.5z M278,170.8c-0.3,6.3-7.9,11-13,6c-3.8-3.7-3.9-11.6-0.4-15.5c4.9-5.4,13.1-2.1,13.4,4.9
		C278.1,167.7,278,169.3,278,170.8z"/>
	<path class="st1" d="M194.4,142.1c-1.9,0-3.7,0-5.6,0c-0.3,0-0.6,0.3-0.6,0.6c0,3.2,0,6.4,0,9.6c-2.8,6.9-10.7,9-16.7,12.3
		c-1.5,0.8-2.9,2-4.3,2.7c0-0.4,0-0.8,0-1.3c0-0.8,0-1.6,0-2.4c0-7,0-13.9,0-20.9c0-0.3-0.3-0.6-0.6-0.6c-1.9,0-3.7,0-5.6,0
		c-0.3,0-0.6,0.3-0.6,0.6c0,13.5,0,27,0,40.6c0,0.3,0.3,0.6,0.6,0.6c1.9,0,3.7,0,5.6,0c0.3,0,0.6-0.3,0.6-0.6c0-4.7-0.2-7.3,4-10.2
		c5.4-3.8,11.9-5.5,17-9.7c0,6.6,0,13.3,0,19.9c0,0.3,0.3,0.6,0.6,0.6c1.9,0,3.7,0,5.6,0c0.3,0,0.6-0.3,0.6-0.6c0-13.5,0-27,0-40.6
		C195,142.4,194.7,142.1,194.4,142.1z"/>
	<path class="st0" d="M37.9,162C37.9,162,37.9,162,37.9,162c-1.4-0.6-7.6-2.3-12.2,0.7c3.9-5.5,10.8-3,11.3-3.2l0.2-0.1l-0.1-0.2
		c-1.1-1.4-7.1-6.8-14.9,0.6c0,0-4.5,3.9-9,2.5l-0.4,0l0.2,0.3c2.8,3.7,6,6.3,10.1,6.7c2.1,0.2,4,0.1,5.6-0.2v6.9
		c-0.9,0.4-2.6,0.6-4.9,0.6c-4.1,0-7.4-1.2-10-3.7c-2.5-2.5-3.8-5.8-3.8-9.9c0-4.2,1.3-7.4,3.9-9.8c2.6-2.4,6-3.6,10.4-3.6
		c4,0,7.4,0.6,10.2,1.8l2-7.5c-3-1.4-7.1-2.1-12.1-2.1c-7.3,0-13.2,2-17.7,5.9C2.2,151.7,0,157,0,163.6c0,6.1,2,11.1,5.9,14.9
		c3.9,3.8,9.8,5.8,17.6,5.8c4.6,0,9.4-0.8,14.5-2.4v-19.3c0.1-0.2,0.2-0.3,0.3-0.4C38.2,162.1,38.1,162,37.9,162L37.9,162z"/>
	<path class="st0" d="M55,154.7c-1.5,1.1-2.7,2.7-3.4,4.8h-0.2l-0.3-5.7h-8.2c0.2,2.2,0.2,5.5,0.2,10v20.1h9.5v-15.2
		c0-2.5,0.7-4.3,2.1-5.3c1.4-1,2.9-1.5,4.7-1.5c0.9,0,1.8,0.1,2.6,0.3v-8.9c-0.4-0.1-1.1-0.2-2-0.2C58.2,153,56.6,153.6,55,154.7z"
		/>
	<path class="st0" d="M78.4,153c-4.8,0-8.5,1.6-11.4,4.8c-2.8,3.2-4.2,6.9-4.2,11.3c0,4.8,1.5,8.5,4.4,11.3c2.9,2.7,7,4.1,12.1,4.1
		c4.3,0,8.1-0.7,11.2-2l-1.2-6.3c-2.6,0.9-5.5,1.3-8.6,1.3c-2.4,0-4.5-0.5-6.1-1.5c-1.6-1-2.5-2.4-2.7-4.2h20c0.2-1,0.4-2.2,0.4-3.6
		c0-4.4-1.2-8.1-3.6-10.9C86.2,154.5,82.8,153,78.4,153z M71.8,165.3c0.3-1.8,0.9-3.2,2-4.3c1.1-1.1,2.4-1.6,4.1-1.6
		c2,0,3.4,0.6,4.2,1.9c0.8,1.3,1.2,2.6,1.2,4H71.8z"/>
	<path class="st0" d="M109.6,153c-4.8,0-8.5,1.6-11.4,4.8c-2.8,3.2-4.2,6.9-4.2,11.3c0,4.8,1.5,8.5,4.4,11.3c2.9,2.7,7,4.1,12.1,4.1
		c4.3,0,8.1-0.7,11.2-2l-1.2-6.3c-2.6,0.9-5.5,1.3-8.6,1.3c-2.4,0-4.5-0.5-6.1-1.5c-1.6-1-2.5-2.4-2.7-4.2h20c0.2-1,0.4-2.2,0.4-3.6
		c0-4.4-1.2-8.1-3.6-10.9C117.4,154.5,114,153,109.6,153z M103,165.3c0.3-1.8,0.9-3.2,2-4.3c1.1-1.1,2.4-1.6,4.1-1.6
		c2,0,3.4,0.6,4.2,1.9c0.8,1.3,1.2,2.6,1.2,4H103z"/>
	<path class="st0" d="M152.4,156.5c-2-2.3-4.7-3.4-8.1-3.4c-4.1,0-7.3,1.6-9.5,4.9h-0.2l-0.4-4.2h-8.2c0.2,3.5,0.2,6.7,0.2,9.7v20.4
		h9.5v-17.2c0-1.9,0.5-3.3,1.6-4.4c1.1-1,2.3-1.5,3.6-1.5c3.3,0,5,2.2,5,6.7v16.4h9.5v-17.7C155.4,162,154.4,158.8,152.4,156.5z"/>
</g>
</svg>
