<?xml version="1.0" encoding="utf-8"?>
<!-- Generator: Adobe Illustrator 19.0.0, SVG Export Plug-In . SVG Version: 6.00 Build 0)  -->
<svg version="1.1" id="Calque_1" xmlns="http://www.w3.org/2000/svg" xmlns:xlink="http://www.w3.org/1999/xlink" x="0px" y="0px"
	 viewBox="0 0 91.4 70.3" style="enable-background:new 0 0 91.4 70.3;" xml:space="preserve">
<style type="text/css">
	.st0{fill:#7D7D7D;}
</style>
<path id="XMLID_54_" class="st0" d="M73,26.4c0.1-3.9-2.2-7.4-5.8-8.9c-0.5-3.3-3.2-5.9-6.5-6.4c0-0.3-0.1-0.7-0.2-1
	c-0.6-2-2.4-3.5-4.4-3.8c-1.3-0.2-2.6,0.2-3.6,0.9c-0.9-0.6-2-0.9-3.1-0.9c-2.9,0-5.2,2.1-5.6,4.9c-0.1,0-0.2,0.1-0.3,0.1
	c-0.1-0.2-0.2-0.5-0.3-0.7c-1.5-2.9-4-4.6-6.4-4.2c-1.6,0.3-2.9,1.3-3.6,2.9c-1.4-0.6-2.8-0.7-4.1-0.3c-1.4,0.5-2.4,1.5-3,3
	c-0.8,1.9-0.8,4.4,0,6.8c-1.1,0.8-1.9,1.9-2.4,3.3c-0.8,2.3-0.5,5.2,0.7,7.7c0.1,0.3,0.3,0.6,0.5,0.8c-1.2,0.8-2.1,1.9-2.6,3.4
	c-0.8,2.2-0.4,4.9,0.9,7.2c0.6,1.1,1.4,2.1,2.4,2.9c-0.3,1.3-0.1,2.8,0.7,4.2c1.1,1.9,3.1,3.1,5.2,3.3c3.3,6.2,7.4,8.8,13.6,11.5
	l0.1,0c0.9,0.6,1.9,0.8,2.9,0.8c0.6,0,1.2-0.1,1.7-0.2c0,0,0,0,0,0c0,0,0,0,0,0c0.5-0.1,0.9-0.3,1.3-0.5c1.9-1.1,2.7-3,2-4.9
	c-1.9-5.6-1.7-9.7,0.5-12.4c3.8-4.6,12.6-3.5,12.7-3.5l1,0.1l0.1-1c0-0.1,0.3-3.4-1.6-5.5c-0.1-0.1-0.2-0.2-0.3-0.4
	c0.5-0.1,1.1-0.3,1.6-0.5C70.5,33.5,72.9,30.1,73,26.4z M32.8,50.2l-0.3-0.5l-0.6,0c0,0,0,0,0,0c-1.6,0-3.2-1-4-2.4
	c-0.6-1-0.7-2.2-0.3-3.1l0.3-0.7L27.2,43c-1-0.7-1.8-1.7-2.4-2.7c-1.1-1.9-1.4-3.9-0.8-5.6c0.4-1.3,1.3-2.2,2.5-2.7l1.2-0.5l-0.8-1
	c-0.4-0.5-0.7-1-0.9-1.5c-1-2.1-1.3-4.4-0.6-6.2c0.4-1.2,1.2-2.1,2.2-2.6l0.9-0.4l-0.4-0.9l0-0.1c-0.9-2.1-1-4.3-0.3-5.9
	c0.3-0.7,0.8-1.5,1.9-1.9c1-0.4,2.2-0.1,3.4,0.7l1.2,0.8l0.4-1.3c0.4-1.5,1.3-2.5,2.5-2.7c1.5-0.3,3.3,1,4.3,3.1
	c0.1,0.2,0.2,0.3,0.2,0.5c0,0,0,0-0.1,0c-0.2,0.1-0.4,0.3-0.6,0.4c-0.1,0.1-0.2,0.2-0.3,0.3c-0.1,0.1-0.1,0.1-0.2,0.2
	c-0.4,0.4-0.8,0.8-1.1,1.2c0,0,0,0.1-0.1,0.1c-0.2,0.3-0.3,0.5-0.5,0.8c0,0.1-0.1,0.1-0.1,0.2c-0.1,0.1-0.1,0.3-0.2,0.4
	c-0.1,0.1-0.1,0.3-0.1,0.4c0,0.1-0.1,0.2-0.1,0.4c-0.1,0.2-0.1,0.4-0.1,0.7c0,0.1,0,0.2,0,0.2c0,0.3-0.1,0.6-0.1,0.8
	c0,0.2,0,0.4,0,0.6c-3.8,0.7-6.6,4-6.6,7.9c0,1.1,0.2,2.3,0.7,3.3c-1.1,1.1-1.7,2.6-1.7,4.2c0,2.4,1.4,4.5,3.4,5.5
	c0,0.5,0,1.1,0,1.6c0,0.2,0,0.3,0,0.5c0,0.3,0,0.7,0.1,1c0,0.2,0,0.4,0.1,0.6c0,0.3,0.1,0.6,0.1,0.9c0,0.2,0.1,0.4,0.1,0.6
	c0,0.3,0.1,0.6,0.1,0.8c0,0.2,0.1,0.4,0.1,0.6c0.1,0.3,0.1,0.5,0.2,0.8c0,0.2,0.1,0.3,0.1,0.5c0.1,0.3,0.2,0.6,0.3,0.8
	c0,0.2,0.1,0.3,0.1,0.5c0.1,0.3,0.2,0.7,0.4,1c0,0.1,0.1,0.2,0.1,0.3c0.2,0.4,0.3,0.8,0.5,1.2c0.1,0.1,0.1,0.2,0.2,0.3
	c0.1,0.3,0.3,0.6,0.4,0.9c0.1,0.2,0.2,0.3,0.3,0.5c0.1,0.2,0.3,0.5,0.4,0.7c0.1,0.2,0.2,0.3,0.3,0.5c0.1,0.2,0.3,0.5,0.4,0.7
	c0.1,0.2,0.2,0.3,0.3,0.5c0.2,0.2,0.3,0.5,0.5,0.7c0.1,0.2,0.2,0.3,0.4,0.5c0.2,0.2,0.3,0.5,0.5,0.7c0.1,0.2,0.3,0.3,0.4,0.5
	c0.2,0.3,0.4,0.5,0.6,0.8c0.1,0.2,0.2,0.3,0.4,0.5c0,0,0,0,0,0C37.7,57.1,35.1,54.6,32.8,50.2z M61.8,33.5l-0.3,0l-1,0.2l-0.1,2.2
	l1,0.1c1.2,0.1,2.1,0.5,2.8,1.2c0.8,0.9,1,2.2,1.1,3.1c-2.8-0.2-9.7-0.2-13.4,4.3c-2.7,3.2-2.9,8.1-0.8,14.3
	c0.5,1.4-0.5,2.2-1.1,2.6c0,0-0.1,0-0.1,0.1c-2-4.8-3.2-9.1-3.8-12.9c0,0,0,0,0-0.1c-0.5-3-0.7-5.8-0.6-8.2c1.4-2.4,5.5-2.5,5.6-2.5
	c0.6,0,1-0.5,1-1c0-0.5-0.5-1-1-1c0,0,0,0,0,0c-0.2,0-3,0.1-5.3,1.5c0.3-2,0.7-3.7,1.3-5.3c0.1-0.1,0.1-0.1,0.1-0.2
	c0.1-0.1,0.1-0.3,0.1-0.4c0.7-1.8,1.6-3.3,2.5-4.6c4.5-0.9,7.9,0.5,7.9,0.5c0.1,0.1,0.3,0.1,0.4,0.1c0.4,0,0.8-0.2,0.9-0.6
	c0.2-0.5,0-1.1-0.5-1.3c-0.1-0.1-2.9-1.2-6.9-0.9c1.9-2,3.6-2.9,3.9-3.1c1.5-0.7,3.6,0.2,4.3,0.6c0.2,0.1,0.3,0.1,0.5,0.1
	c0.3,0,0.7-0.2,0.9-0.5c0.3-0.5,0.1-1.1-0.4-1.4c-0.1-0.1-2.4-1.4-4.7-1.1c0.2-0.8,0.6-1.5,0.9-1.8c0.3-0.4,0.3-1.1-0.2-1.4
	c-0.4-0.3-1.1-0.3-1.4,0.2C55.3,16.3,54,18,54,20c-1.5,0.9-5.2,3.6-7.8,9c-0.1,0.3-0.3,0.6-0.4,0.9c-2.7-1.9-2.3-5.2-2.3-5.3
	c0.1-0.5-0.3-1.1-0.8-1.1c-0.5-0.1-1.1,0.3-1.1,0.8c-0.3,1.8,0.1,5.6,3.5,7.6c-0.7,2.2-1.3,4.8-1.5,7.9c0,0.1,0,0.2,0,0.3
	c-0.1,2.2,0,4.6,0.3,7.2c-1.3-0.7-1.8-1.7-1.9-1.8c-0.3-0.5-0.9-0.7-1.3-0.4c-0.5,0.3-0.7,0.9-0.4,1.4c0.1,0.1,1.3,2.3,4,3.2
	c0.7,3.7,1.9,7.8,3.7,12.4c-0.6,0-1.3-0.2-1.8-0.5l0,0c-0.1-0.1-0.2-0.1-0.3-0.2c-0.1-0.1-0.2-0.2-0.3-0.3c0,0,0,0,0,0L45,60.5
	c-6.3-7.2-9.4-12.5-9.1-21.3l0-0.7l-0.7-0.2c-1.7-0.6-2.8-2.2-2.8-3.9c0-1.3,0.6-2.4,1.5-3.2l0.7-0.5l-0.4-0.7c-0.5-0.9-0.8-2-0.8-3
	c0-3.3,2.6-5.9,5.8-6.1l1.2-0.1l-0.3-1.2C40,19,40,18.6,40,18.2c0-0.3,0-0.6,0.1-0.9c0-0.1,0-0.1,0-0.2c0.1-0.2,0.1-0.5,0.2-0.7
	c0-0.1,0-0.1,0.1-0.2c0.1-0.3,0.2-0.5,0.4-0.7c0,0,0,0,0,0c0.3-0.5,0.7-0.9,1.2-1.3c0.1-0.1,0.1-0.1,0.2-0.1
	c0.2-0.1,0.3-0.2,0.5-0.3c0.1-0.1,0.2-0.1,0.3-0.2c0.5-0.2,1.1-0.4,1.7-0.4l0.9-0.1v-0.9l0-0.1c0-2,1.7-3.7,3.7-3.7
	c0.9,0,1.8,0.3,2.5,1l0.7,0.6l0.7-0.7c0.7-0.7,1.7-1,2.7-0.9c1.3,0.1,2.3,1.1,2.7,2.3c0.1,0.4,0.2,0.8,0.1,1.2l-0.1,1.1h1.1
	c2.9,0,5.4,2.3,5.6,5.2l0,0.7l0.6,0.2c3.1,1.1,5.1,4,5,7.2c-0.1,2.9-1.9,5.6-4.8,6.8C64.8,33.8,63.3,33.9,61.8,33.5z"/>
</svg>
