<?xml version="1.0" encoding="utf-8"?>
<!-- Generator: Adobe Illustrator 19.0.0, SVG Export Plug-In . SVG Version: 6.00 Build 0)  -->
<svg version="1.1" id="Calque_1" xmlns="http://www.w3.org/2000/svg" xmlns:xlink="http://www.w3.org/1999/xlink" x="0px" y="0px"
	 viewBox="0 0 91.4 70.3" style="enable-background:new 0 0 91.4 70.3;" xml:space="preserve">
<style type="text/css">
	.st0{fill:#7D7D7D;}
</style>
<g>
	<path class="st0" d="M71.8,0c-6.7,0-13,2-18.2,5.9c-4.6,3.4-8,8.1-9.3,12.9c-1.5,5.5-0.3,10.4,3.3,13.7c-1.2,2.2-2.4,4.4-3.3,6.6
		c-0.8-2.1-2-4-3.2-5.6c1.8-2.9,2-6.3,0.6-9.9c-1.3-3.4-4-6.5-7.6-8.7c-3.8-2.4-8.4-3.7-13.1-3.7c-6,0-12.2,2.2-17.9,6.3L0,19.6
		l3.6,1c6,1.6,10.8,6.3,15,10.3C23,35.1,27.1,39,31.8,39c0,0,0,0,0,0c2.3,0,4.5-0.9,6.8-2.8c2.1,3,3.7,6.7,3.7,11.2v22.9h3.6
		c0,0,0-22.2,0-23.4c0-2.9,1.7-7.1,4.7-12.4c2.2,1.2,4.3,1.8,6.4,1.8c6.6,0,11-6.4,15.5-13.1c4.1-6,8.7-12.8,15.6-16.3l3.4-1.7
		l-3.4-1.5C82.5,1.2,77,0,71.8,0L71.8,0z M31.8,35.4C31.8,35.4,31.8,35.4,31.8,35.4c-3.3,0-6.7-3.3-10.6-7.1
		c-3.7-3.6-7.9-7.6-13.1-10c4.2-2.5,8.5-3.7,12.9-3.7c8.7,0,15.3,5.1,17.3,10.2c0.5,1.3,1.1,3.5,0.2,5.7c-3.2-3.3-6.8-5.5-9-6.9
		c-0.6-0.4-1.2-0.8-1.6-1l-2.1,2.9c0.5,0.3,1.1,0.7,1.8,1.1c2.3,1.4,5.8,3.6,8.7,6.8C34.7,34.8,33.2,35.4,31.8,35.4L31.8,35.4z
		 M69.4,21.2c-4.2,6.2-7.8,11.5-12.5,11.5c-1.4,0-2.9-0.4-4.5-1.3c0.2-0.3,0.3-0.5,0.5-0.8c3.6-5.7,7.2-10.2,7.2-10.3l-2.8-2.2
		c-0.3,0.4-4.1,5.2-7.8,11.2c-2.2-2.4-2.8-5.7-1.8-9.5c1.1-4,4-8,8-11c3.2-2.4,8.5-5.2,16.1-5.2c3.7,0,7.5,0.7,11.4,2
		C77.2,9.8,73.1,15.8,69.4,21.2L69.4,21.2z"/>
</g>
</svg>
