<?xml version="1.0" encoding="utf-8"?>
<!-- Generator: Adobe Illustrator 19.0.0, SVG Export Plug-In . SVG Version: 6.00 Build 0)  -->
<svg version="1.1" id="Calque_1" xmlns="http://www.w3.org/2000/svg" xmlns:xlink="http://www.w3.org/1999/xlink" x="0px" y="0px"
	 viewBox="0 0 91.4 70.3" style="enable-background:new 0 0 91.4 70.3;" xml:space="preserve">
<style type="text/css">
	.st0{fill:#7D7D7D;}
</style>
<g id="XMLID_54_">
	<path id="XMLID_56_" class="st0" d="M46.8,61.3c-10.6,0-19.1-8.6-19.1-19.1c0-9.9,15.7-30.1,17.5-32.4c0.4-0.5,1-0.8,1.6-0.8
		s1.2,0.3,1.6,0.8c1.8,2.3,17.5,22.5,17.5,32.4C65.9,52.7,57.3,61.3,46.8,61.3z M46.8,14.4c-5.3,7.1-15.1,21.3-15.1,27.8
		c0,8.3,6.8,15.1,15.1,15.1s15.1-6.8,15.1-15.1C61.8,35.7,52.1,21.5,46.8,14.4z"/>
	<path id="XMLID_55_" class="st0" d="M46.8,53.2c-1.1,0-2-0.9-2-2s0.9-2,2-2c3.8,0,6.9-3.1,6.9-6.9c0-1.1,0.9-2,2-2c1.1,0,2,0.9,2,2
		C57.8,48.2,52.8,53.2,46.8,53.2z"/>
</g>
</svg>
