<?xml version="1.0" encoding="utf-8"?>
<!-- Generator: Adobe Illustrator 19.0.0, SVG Export Plug-In . SVG Version: 6.00 Build 0)  -->
<svg version="1.1" id="Calque_1" xmlns="http://www.w3.org/2000/svg" xmlns:xlink="http://www.w3.org/1999/xlink" x="0px" y="0px"
	 viewBox="0 0 91.4 70.3" style="enable-background:new 0 0 91.4 70.3;" xml:space="preserve">
<style type="text/css">
	.st0{fill:#7D7D7D;}
</style>
<path id="XMLID_54_" class="st0" d="M68.2,53.2c4.5-5.1,7.3-11.9,7.3-19.2c0-7.7-3-14.6-7.9-19.8v0c0,0,0,0,0,0
	C62.5,8.7,55.4,5.3,47.5,5l0,0l-0.6,0c-0.1,0-0.3,0-0.4,0S46.2,5,46,5l-0.6,0l0,0c-7.9,0.3-15,3.7-20.1,9.1c0,0,0,0,0,0c0,0,0,0,0,0
	c-4.9,5.2-7.9,12.2-7.9,19.8c0,7.4,2.8,14.1,7.3,19.2c0,0,0,0,0,0c0,0,0,0,0.1,0.1C30,59,37.3,62.7,45.5,63l0,0l0.6,0
	c0.1,0,0.3,0,0.4,0s0.3,0,0.4,0l0.6,0l0,0C55.7,62.7,63,59,68.2,53.2C68.1,53.3,68.1,53.2,68.2,53.2C68.2,53.2,68.2,53.2,68.2,53.2z
	 M19.5,35h12c0.1,4.2,0.9,8.4,2.4,12.2c-2.8,1-5.6,2.4-8.1,4.1C22.1,46.9,19.7,41.2,19.5,35z M26.4,16c2.5,1.6,5.1,2.9,7.9,3.9
	c-1.7,4.1-2.6,8.5-2.8,13.1h-12C19.8,26.5,22.3,20.6,26.4,16z M73.5,33h-12c-0.1-4.6-1.1-9-2.8-13.1c2.8-1,5.4-2.3,7.9-3.9
	C70.7,20.6,73.2,26.5,73.5,33z M45.5,19.9c-2.9-0.1-5.7-0.5-8.5-1.3c2-4.2,4.9-7.9,8.5-11V19.9z M45.5,21.9v11h-12
	c0.1-4.3,1-8.6,2.7-12.5C39.2,21.4,42.3,21.9,45.5,21.9z M47.5,21.9c3.2-0.1,6.3-0.6,9.3-1.4c1.6,3.9,2.5,8.1,2.7,12.5h-12V21.9z
	 M47.5,19.9V7.6c3.6,3.1,6.4,6.9,8.5,11C53.2,19.4,50.4,19.9,47.5,19.9z M57.9,18.1C56,14,53.3,10.4,50,7.2
	c5.9,0.8,11.1,3.4,15.2,7.3C62.9,16,60.4,17.2,57.9,18.1z M35.1,18.1c-2.5-0.9-5-2.1-7.3-3.5C31.8,10.6,37.1,8,43,7.2
	C39.7,10.4,37,14,35.1,18.1z M33.5,35h12v10c-3.3,0.1-6.5,0.6-9.7,1.5C34.4,42.9,33.6,39,33.5,35z M45.5,47v13.3
	c-3.8-3.3-6.8-7.4-8.9-11.9C39.5,47.6,42.4,47.1,45.5,47z M47.5,60.3V47c3,0.1,6,0.6,8.9,1.4C54.3,52.9,51.3,57,47.5,60.3z M47.5,45
	V35h12c-0.1,4-0.9,7.9-2.3,11.6C54,45.6,50.8,45.1,47.5,45z M61.5,35h12c-0.2,6.2-2.6,11.9-6.3,16.3c-2.5-1.7-5.3-3.1-8.1-4.1
	C60.5,43.3,61.3,39.2,61.5,35z M27.2,52.8c2.4-1.6,4.9-2.8,7.5-3.8c1.9,4.4,4.7,8.3,8.3,11.7C36.8,59.9,31.3,57.1,27.2,52.8z
	 M50,60.7c3.5-3.4,6.3-7.3,8.3-11.7c2.6,0.9,5.2,2.2,7.5,3.8C61.7,57.1,56.2,59.9,50,60.7z"/>
</svg>
