<?xml version="1.0" encoding="utf-8"?>
<!-- Generator: Adobe Illustrator 19.0.0, SVG Export Plug-In . SVG Version: 6.00 Build 0)  -->
<svg version="1.1" id="Calque_1" xmlns="http://www.w3.org/2000/svg" xmlns:xlink="http://www.w3.org/1999/xlink" x="0px" y="0px"
	 viewBox="0 0 36.2 36.2" style="enable-background:new 0 0 36.2 36.2;" xml:space="preserve">
<style type="text/css">
	.st0{fill:#96BE1F;}
</style>
<g>
	<g>
		<path class="st0" d="M33.5,5.5c0.8-0.8,0.8-2,0-2.8c-0.8-0.8-2-0.8-2.8,0c-3.6-3.6-9.4-3.6-13,0L9,11.4c-0.8,0.8-1.6,1.1-3.3,0.5
			c-1-0.3-2.5-0.2-3.3,0.5c-0.8,0.8-1.9,1.9-1.9,1.9l0,0c-1.7,1.8,0.8,7.1,5.5,12.4c0.2-0.8,0.5-1.6,1-2.3C3.4,20.3,2.2,17,2.2,16
			c0,0,0,0,0,0c1.9,0,6.4,2.5,10.9,7c0.3,0.3,0.5,0.5,0.8,0.8c-0.6-0.3-1.3-0.4-1.9-0.4c-1.2,0-2.4,0.5-3.3,1.4
			c-0.3,0.3-0.5,0.6-0.7,1c0,0,0,0,0,0c0,0,0,0,0,0c-0.2,0.4-0.4,0.8-0.5,1.2c0,0,0,0,0,0.1c0,0.2-0.1,0.4-0.1,0.6c0,0,0,0,0,0
			c0,0.2,0,0.4,0,0.6c0,0,0,0,0,0c0,0,0,0,0,0c0.1,1.1,0.5,2.2,1.3,3c0.9,0.9,2.1,1.4,3.3,1.4c0.1,0,0.2,0,0.4,0l0,0h0
			c0.2,0,0.4-0.1,0.7-0.1c0,0,0,0,0,0c0.4-0.1,0.9-0.3,1.3-0.5c0,0,0,0,0,0c0.4-0.2,0.7-0.5,1-0.8c1.2-1.2,1.6-3,1.2-4.6
			c2.8,3.6,3.7,6.3,3.7,7.2c0,0,0,0,0,0c-0.9,0-2.2-0.5-3.9-1.5c-0.6,0.6-1.4,1-2.2,1.3c2.4,1.5,4.6,2.4,6.1,2.4
			c0.7,0,1.2-0.2,1.6-0.5l0,0c0,0,1.1-1.1,1.9-1.9c0.8-0.8,0.6-2.2,0.5-3.3c0-1.1-0.2-2.5,0.5-3.3l8.7-8.7
			C37.1,14.8,37.1,9,33.5,5.5z"/>
	</g>
</g>
</svg>
