<?xml version="1.0" encoding="utf-8"?>
<!-- Generator: Adobe Illustrator 19.0.0, SVG Export Plug-In . SVG Version: 6.00 Build 0)  -->
<svg version="1.1" id="Calque_1" xmlns="http://www.w3.org/2000/svg" xmlns:xlink="http://www.w3.org/1999/xlink" x="0px" y="0px"
	 viewBox="5 -6.2 36.2 36.2" style="enable-background:new 5 -6.2 36.2 36.2;" xml:space="preserve">
<style type="text/css">
	.st0{fill:#FFFFFF;}
</style>
<g id="XMLID_174_">
	<g>
		<path id="XMLID_9_" class="st0" d="M32.2-6.2c0,0-3,2.9-6.2,4.1C2.1,6.5,12.2,23.3,12.5,23.4c0,0,1.3-2.3,3.1-3.7
			C27.1,11.3,29.4,1.6,29.4,1.6s-2.6,11.7-12.8,18.9c-2.3,1.6-3.8,5.6-4.4,9.5c0,0,1.6-0.6,2.3-0.8c0.3-1.7,0.8-3.4,1.8-4.9
			c14.3,1.7,18.9-9.8,19.5-13.8C37.3,1,32.2-6.2,32.2-6.2z"/>
	</g>
</g>
</svg>
