<?xml version="1.0" encoding="utf-8"?>
<!-- Generator: Adobe Illustrator 19.0.0, SVG Export Plug-In . SVG Version: 6.00 Build 0)  -->
<svg version="1.1" id="Calque_1" xmlns="http://www.w3.org/2000/svg" xmlns:xlink="http://www.w3.org/1999/xlink" x="0px" y="0px"
	 viewBox="0 0 28.3 25" style="enable-background:new 0 0 28.3 25;" xml:space="preserve">
<style type="text/css">
	.st0{fill:#23B4B0;}
</style>
<g id="XMLID_80_">
	<path id="XMLID_81_" class="st0" d="M26.7,10.6L15.4,1.3c-0.2-0.2-0.5-0.2-0.7-0.1s-0.4,0.4-0.4,0.6v4.9C8.8,6.9,5,8.8,3.1,12.4
		c-1.7,3.1-1.7,6.8-1.7,9.2c0,0.2,0,0.4,0,0.6c0,0.3,0.2,0.6,0.5,0.7c0.1,0,0.1,0,0.2,0c0.3,0,0.5-0.1,0.6-0.4c3.8-6.7,7-7,11.5-7.1
		v4.9c0,0.3,0.2,0.5,0.4,0.6c0.3,0.1,0.5,0.1,0.8-0.1l11.2-9.3c0.2-0.1,0.3-0.3,0.3-0.5C26.9,10.9,26.8,10.7,26.7,10.6z M15.7,18.9
		v-4.1c0-0.2-0.1-0.4-0.2-0.5c-0.1-0.1-0.3-0.2-0.5-0.2c-2.8,0-5,0.1-7.1,1.1c-1.8,0.9-3.4,2.3-5,4.6c0.1-2.1,0.3-4.5,1.5-6.6
		c1.8-3.3,5.3-5,10.6-5c0.4,0,0.7-0.3,0.7-0.7V3.3l9.4,7.8L15.7,18.9z"/>
</g>
</svg>
