<?xml version="1.0" encoding="utf-8"?>
<!-- Generator: Adobe Illustrator 19.0.0, SVG Export Plug-In . SVG Version: 6.00 Build 0)  -->
<svg version="1.1" id="Calque_1" xmlns="http://www.w3.org/2000/svg" xmlns:xlink="http://www.w3.org/1999/xlink" x="0px" y="0px"
	 viewBox="0 0 28.3 25" style="enable-background:new 0 0 28.3 25;" xml:space="preserve">
<style type="text/css">
	.st0{fill:#96BE1F;}
</style>
<g id="XMLID_80_">
	<path id="XMLID_81_" class="st0" d="M17.2,5c1.4,0.8,2.3,2.3,2.5,3.9c0.6,0.3,1.2,0.4,1.8,0.4c2.4,0,4.3-1.9,4.3-4.3
		c0-2.4-1.9-4.3-4.3-4.3C19.1,0.8,17.2,2.7,17.2,5z M14.4,13.8c2.4,0,4.3-1.9,4.3-4.3s-1.9-4.3-4.3-4.3s-4.3,1.9-4.3,4.3
		S12,13.8,14.4,13.8z M16.2,14.1h-3.6c-3,0-5.5,2.5-5.5,5.5V24l0,0.1l0.3,0.1c2.9,0.9,5.4,1.2,7.5,1.2c4,0,6.4-1.2,6.5-1.2l0.3-0.1
		h0v-4.4C21.7,16.5,19.2,14.1,16.2,14.1z M23.3,9.6h-3.6c0,1.4-0.7,2.7-1.6,3.7c2.7,0.8,4.7,3.3,4.7,6.2v1.4
		c3.6-0.1,5.6-1.1,5.8-1.2l0.3-0.1h0v-4.4C28.8,12.1,26.3,9.6,23.3,9.6z M6.9,9.4c0.8,0,1.6-0.2,2.3-0.7c0.2-1.4,0.9-2.6,2-3.4
		c0-0.1,0-0.2,0-0.2c0-2.4-1.9-4.3-4.3-4.3c-2.4,0-4.3,1.9-4.3,4.3C2.6,7.4,4.5,9.4,6.9,9.4z M10.7,13.3c-1-0.9-1.6-2.2-1.6-3.7
		c-0.1,0-0.3,0-0.4,0H5c-3,0-5.5,2.5-5.5,5.5v4.4l0,0.1l0.3,0.1c2.3,0.7,4.4,1.1,6.2,1.2v-1.3C6.1,16.6,8,14.1,10.7,13.3z"/>
</g>
</svg>
